<?xml version="1.0" standalone="no"?>
<!DOCTYPE svg PUBLIC "-//W3C//DTD SVG 20010904//EN"
 "http://www.w3.org/TR/2001/REC-SVG-20010904/DTD/svg10.dtd">
<svg version="1.0" xmlns="http://www.w3.org/2000/svg"
 width="584.000000pt" height="584.000000pt" viewBox="0 0 584.000000 584.000000"
 preserveAspectRatio="xMidYMid meet">
<metadata>
Created by potrace 1.14, written by Peter Selinger 2001-2017
</metadata>
<g transform="translate(0.000000,584.000000) scale(0.100000,-0.100000)"
fill="#000000" stroke="none">
<path d="M1243 4465 c-71 -32 -158 -123 -197 -205 -29 -60 -31 -73 -31 -175
-1 -94 -4 -115 -22 -145 -59 -97 -68 -268 -20 -373 24 -53 135 -177 158 -177
21 0 6 -29 -25 -51 -61 -44 -123 -107 -170 -172 -54 -76 -73 -118 -80 -177 -6
-52 -19 -62 -55 -44 -44 22 -76 23 -117 4 -53 -24 -92 -65 -100 -107 -12 -65
19 -280 60 -418 9 -27 13 -51 10 -54 -5 -5 -19 -8 -84 -16 -25 -3 -58 -8 -75
-10 -16 -3 -48 -7 -70 -10 -82 -12 -95 -17 -129 -56 -74 -85 -52 -188 55 -261
30 -20 59 -37 66 -37 7 -1 41 -26 75 -57 54 -48 96 -77 178 -123 24 -14 62
-29 100 -40 19 -6 50 -15 69 -21 50 -15 449 -4 581 16 25 4 48 7 51 6 4 -1 33
3 65 8 33 5 77 12 99 16 59 9 243 52 300 71 62 20 187 78 241 113 87 55 144
118 167 185 7 21 20 39 28 41 40 6 99 14 144 19 48 5 70 8 160 20 22 3 57 7
78 9 l37 5 0 -39 c0 -37 -2 -40 -27 -42 -196 -10 -327 -232 -237 -399 30 -54
88 -102 184 -151 37 -19 61 -23 130 -23 47 0 114 4 150 8 36 5 88 10 115 13
28 2 66 6 85 9 19 3 60 7 90 11 70 7 126 13 170 19 19 3 60 7 90 11 30 3 66 7
80 9 14 1 52 6 85 9 61 7 116 14 170 21 17 3 53 7 80 10 28 3 68 8 90 10 22 3
117 14 210 25 168 20 202 24 280 35 69 9 118 15 170 20 88 10 147 18 201 29
36 7 96 44 127 78 102 111 101 277 0 369 -39 35 -160 109 -186 113 -22 3 -45
21 -47 36 -7 44 0 56 33 58 18 1 43 4 54 6 12 3 53 8 90 11 37 4 75 8 83 10 8
2 42 7 75 10 33 4 77 11 97 16 42 11 87 53 90 84 5 68 4 82 -4 105 -4 14 -25
39 -45 56 l-36 32 32 33 c54 56 74 105 67 158 -4 25 -6 55 -5 66 2 11 3 54 3
95 0 119 -38 173 -184 259 -90 53 -131 64 -210 59 -90 -7 -173 -45 -227 -106
-40 -45 -44 -46 -65 -33 -90 57 -130 73 -200 76 -65 4 -73 7 -102 38 -17 18
-62 51 -99 72 -62 34 -75 37 -137 36 -69 -1 -133 -18 -171 -44 -17 -12 -26
-12 -59 -1 -21 7 -62 12 -92 10 -147 -10 -222 -65 -250 -183 -9 -39 -20 -56
-45 -73 -33 -22 -34 -22 -79 -5 -64 24 -198 14 -265 -21 -29 -14 -62 -8 -71
15 -6 17 -153 104 -207 122 -74 26 -169 25 -245 -2 -80 -29 -101 -42 -163
-105 -83 -84 -119 -171 -130 -310 l-6 -82 -56 36 c-65 42 -145 82 -164 82 -7
0 -48 22 -92 50 -43 27 -87 52 -96 55 -10 3 -30 29 -44 58 -15 29 -30 54 -34
57 -3 3 -18 19 -33 35 l-27 30 29 85 c26 74 29 95 25 167 -5 92 -20 138 -62
181 -29 31 -135 102 -151 102 -5 0 -15 7 -22 15 -7 8 -21 15 -30 15 -10 0 -20
4 -22 9 -1 4 -24 18 -50 29 -29 12 -48 27 -48 37 0 9 22 49 50 90 104 154 135
268 93 335 -22 33 -47 52 -141 103 -66 35 -135 36 -209 2z m1222 -1850 c28
-27 45 -49 39 -54 -5 -5 -35 -11 -66 -14 -52 -5 -58 -4 -58 13 0 10 4 21 9 24
5 3 12 22 15 41 4 19 8 35 10 35 1 0 24 -20 51 -45z m2066 -172 c0 -4 3 -20 5
-35 4 -24 1 -28 -28 -32 -50 -8 -104 -16 -156 -21 -51 -5 -122 -14 -162 -20
-14 -2 -56 -6 -94 -10 -38 -3 -72 -8 -75 -9 -3 -2 -35 -7 -70 -10 -36 -4 -79
-9 -95 -11 -17 -2 -53 -7 -81 -9 -118 -12 -161 -17 -185 -22 -14 -3 -54 -8
-90 -10 -90 -5 -172 -14 -190 -19 -23 -6 -150 -19 -204 -19 -47 -1 -49 0 -50
27 -2 35 -1 35 65 42 57 5 137 14 179 20 14 2 48 6 75 9 83 9 388 47 415 51
14 2 54 7 90 10 36 3 72 8 80 10 8 2 46 6 83 10 37 3 76 8 85 9 9 2 49 7 87
11 39 4 78 9 88 11 10 2 48 6 85 9 36 3 67 7 69 8 6 7 73 7 74 0z"/>
</g>
</svg>
